<svg width="358" height="540" viewBox="0 0 358 540" fill="none" xmlns="http://www.w3.org/2000/svg">
<mask id="mask0_61486:3" style="mask-type:alpha" maskUnits="userSpaceOnUse" x="0" y="0" width="358" height="541">
<rect y="0.000488281" width="358" height="540" fill="#202024"/>
</mask>
<g mask="url(#mask0_61486:3)">
<path d="M358 61.4929V-396.824L178.5 -500L-1 -396.824V61.4929L178.5 164.675L358 61.4929Z" fill="url(#paint0_linear_61486:3)"/>
<g style="mix-blend-mode:luminosity" opacity="0.4">
<path d="M0.800786 -40.6499V62.1595L90.1006 113.569L179.4 62.1595V-40.6499L90.1006 -92.0596L0.800786 -40.6499Z" fill="url(#paint1_linear_61486:3)"/>
<path d="M0.800786 -143.465V-40.655L90.1006 10.7546L179.4 -40.655V-143.465L90.1006 -194.874L0.800786 -143.465Z" fill="url(#paint2_linear_61486:3)"/>
<path d="M179.4 62.1593V-40.6503L268.7 -92.0599L358 -40.6503V62.1593L268.7 113.569L179.4 62.1593Z" fill="url(#paint3_linear_61486:3)"/>
<path d="M358 -143.465V-40.655L268.7 10.7546L179.4 -40.655V-143.465L268.7 -194.874L358 -143.465Z" fill="url(#paint4_linear_61486:3)"/>
<path d="M268.7 113.591V10.7813L179.4 -40.6284L90.1006 10.7813L90.1006 113.591L179.4 165L268.7 113.591Z" fill="url(#paint5_linear_61486:3)"/>
</g>
</g>
<defs>
<linearGradient id="paint0_linear_61486:3" x1="-1.00001" y1="-484.233" x2="438.976" y2="-423.678" gradientUnits="userSpaceOnUse">
<stop stop-color="#FF008E"/>
<stop offset="1" stop-color="#FFCD1E"/>
</linearGradient>
<linearGradient id="paint1_linear_61486:3" x1="90.1006" y1="108.841" x2="1.1853" y2="-42.8956" gradientUnits="userSpaceOnUse">
<stop stop-color="#8257E5"/>
<stop offset="1" stop-color="#FF008E" stop-opacity="0"/>
</linearGradient>
<linearGradient id="paint2_linear_61486:3" x1="90.1006" y1="6.02632" x2="1.18528" y2="-145.71" gradientUnits="userSpaceOnUse">
<stop stop-color="#8257E5"/>
<stop offset="1" stop-color="#FF008E" stop-opacity="0"/>
</linearGradient>
<linearGradient id="paint3_linear_61486:3" x1="358" y1="67.9372" x2="179.676" y2="-39.6715" gradientUnits="userSpaceOnUse">
<stop stop-color="#FF008E" stop-opacity="0"/>
<stop offset="1" stop-color="#FFCD1E"/>
</linearGradient>
<linearGradient id="paint4_linear_61486:3" x1="268.7" y1="6.02632" x2="357.615" y2="-145.71" gradientUnits="userSpaceOnUse">
<stop stop-color="#8257E5"/>
<stop offset="1" stop-color="#FF008E" stop-opacity="0"/>
</linearGradient>
<linearGradient id="paint5_linear_61486:3" x1="179.4" y1="-35.9001" x2="268.316" y2="115.836" gradientUnits="userSpaceOnUse">
<stop stop-color="#8257E5"/>
<stop offset="1" stop-color="#FF008E" stop-opacity="0"/>
</linearGradient>
</defs>
</svg>
